<mxfile host="drawio-plugin" modified="2021-07-27T18:22:39.251Z" agent="5.0 (X11; Linux x86_64) AppleWebKit/537.36 (KHTML, like Gecko) Chrome/89.0.4389.90 Safari/537.36" etag="AyQTwjwYExTXnCRqLV2s" version="14.7.4" type="embed"><diagram id="LCb4hZ2l0zx_YcPVviS-" name="Page-1"><mxGraphModel dx="2534" dy="556" grid="1" gridSize="10" guides="1" tooltips="1" connect="1" arrows="1" fold="1" page="1" pageScale="1" pageWidth="1169" pageHeight="827" math="0" shadow="0" extFonts="Roboto Mono^https://fonts.googleapis.com/css?family=Roboto+Mono"><root><mxCell id="0"/><mxCell id="1" parent="0"/><mxCell id="3i7cQnQl3344cl3jjxl5-1" value="" style="rounded=0;whiteSpace=wrap;html=1;strokeColor=none;fillColor=#FF0000;" parent="1" vertex="1"><mxGeometry width="512" height="512" as="geometry"/></mxCell><mxCell id="3i7cQnQl3344cl3jjxl5-2" value="&lt;font style=&quot;font-size: 132px;&quot;&gt;Right&lt;/font&gt;" style="text;html=1;strokeColor=none;fillColor=none;align=center;verticalAlign=middle;whiteSpace=wrap;rounded=0;fontFamily=Roboto Mono;FType=g;fontSize=132;" parent="1" vertex="1"><mxGeometry x="20" y="30" width="472" height="210" as="geometry"/></mxCell><mxCell id="3i7cQnQl3344cl3jjxl5-3" value="&lt;font style=&quot;font-size: 200px;&quot; face=&quot;Roboto Mono&quot;&gt;+X&lt;/font&gt;" style="text;html=1;strokeColor=none;fillColor=none;align=center;verticalAlign=middle;whiteSpace=wrap;rounded=0;fontSize=200;" parent="1" vertex="1"><mxGeometry x="20" y="260" width="472" height="210" as="geometry"/></mxCell><mxCell id="3i7cQnQl3344cl3jjxl5-4" value="" style="rounded=0;whiteSpace=wrap;html=1;strokeColor=none;fillColor=#0000FF;" parent="1" vertex="1"><mxGeometry x="2560" width="512" height="512" as="geometry"/></mxCell><mxCell id="3i7cQnQl3344cl3jjxl5-5" value="&lt;font style=&quot;font-size: 132px;&quot;&gt;Front&lt;/font&gt;" style="text;html=1;strokeColor=none;fillColor=none;align=center;verticalAlign=middle;whiteSpace=wrap;rounded=0;fontFamily=Roboto Mono;FType=g;fontSize=132;" parent="1" vertex="1"><mxGeometry x="2580" y="30" width="472" height="210" as="geometry"/></mxCell><mxCell id="3i7cQnQl3344cl3jjxl5-6" value="&lt;font style=&quot;font-size: 200px;&quot; face=&quot;Roboto Mono&quot;&gt;-Z&lt;/font&gt;" style="text;html=1;strokeColor=none;fillColor=none;align=center;verticalAlign=middle;whiteSpace=wrap;rounded=0;fontSize=200;" parent="1" vertex="1"><mxGeometry x="2580" y="260" width="472" height="210" as="geometry"/></mxCell><mxCell id="3i7cQnQl3344cl3jjxl5-7" value="" style="rounded=0;whiteSpace=wrap;html=1;strokeColor=none;fillColor=#FF0000;" parent="1" vertex="1"><mxGeometry x="1536" width="512" height="512" as="geometry"/></mxCell><mxCell id="3i7cQnQl3344cl3jjxl5-8" value="&lt;font style=&quot;font-size: 132px;&quot;&gt;Left&lt;/font&gt;" style="text;html=1;strokeColor=none;fillColor=none;align=center;verticalAlign=middle;whiteSpace=wrap;rounded=0;fontFamily=Roboto Mono;FType=g;fontSize=132;" parent="1" vertex="1"><mxGeometry x="1556" y="30" width="472" height="210" as="geometry"/></mxCell><mxCell id="3i7cQnQl3344cl3jjxl5-9" value="&lt;font style=&quot;font-size: 200px;&quot; face=&quot;Roboto Mono&quot;&gt;-X&lt;/font&gt;" style="text;html=1;strokeColor=none;fillColor=none;align=center;verticalAlign=middle;whiteSpace=wrap;rounded=0;fontSize=200;" parent="1" vertex="1"><mxGeometry x="1556" y="260" width="472" height="210" as="geometry"/></mxCell><mxCell id="3i7cQnQl3344cl3jjxl5-10" value="" style="rounded=0;whiteSpace=wrap;html=1;strokeColor=none;fillColor=#0000FF;" parent="1" vertex="1"><mxGeometry x="1024" width="512" height="512" as="geometry"/></mxCell><mxCell id="3i7cQnQl3344cl3jjxl5-11" value="&lt;font style=&quot;font-size: 132px;&quot;&gt;Back&lt;/font&gt;" style="text;html=1;strokeColor=none;fillColor=none;align=center;verticalAlign=middle;whiteSpace=wrap;rounded=0;fontFamily=Roboto Mono;FType=g;fontSize=132;" parent="1" vertex="1"><mxGeometry x="1044" y="30" width="472" height="210" as="geometry"/></mxCell><mxCell id="3i7cQnQl3344cl3jjxl5-13" value="" style="rounded=0;whiteSpace=wrap;html=1;strokeColor=none;fillColor=#00FF00;" parent="1" vertex="1"><mxGeometry x="2048" width="512" height="512" as="geometry"/></mxCell><mxCell id="3i7cQnQl3344cl3jjxl5-14" value="&lt;font style=&quot;font-size: 132px;&quot;&gt;Top&lt;/font&gt;" style="text;html=1;strokeColor=none;fillColor=none;align=center;verticalAlign=middle;whiteSpace=wrap;rounded=0;fontFamily=Roboto Mono;FType=g;fontSize=132;" parent="1" vertex="1"><mxGeometry x="2068" y="30" width="472" height="210" as="geometry"/></mxCell><mxCell id="3i7cQnQl3344cl3jjxl5-15" value="&lt;font style=&quot;font-size: 200px;&quot; face=&quot;Roboto Mono&quot;&gt;-Y&lt;/font&gt;" style="text;html=1;strokeColor=none;fillColor=none;align=center;verticalAlign=middle;whiteSpace=wrap;rounded=0;fontSize=200;" parent="1" vertex="1"><mxGeometry x="2068" y="260" width="472" height="210" as="geometry"/></mxCell><mxCell id="3i7cQnQl3344cl3jjxl5-16" value="" style="rounded=0;whiteSpace=wrap;html=1;strokeColor=none;fillColor=#00FF00;" parent="1" vertex="1"><mxGeometry x="512" width="512" height="512" as="geometry"/></mxCell><mxCell id="3i7cQnQl3344cl3jjxl5-17" value="&lt;font style=&quot;font-size: 132px;&quot;&gt;Bottom&lt;/font&gt;" style="text;html=1;strokeColor=none;fillColor=none;align=center;verticalAlign=middle;whiteSpace=wrap;rounded=0;fontFamily=Roboto Mono;FType=g;fontSize=132;" parent="1" vertex="1"><mxGeometry x="532" y="30" width="472" height="210" as="geometry"/></mxCell><mxCell id="3i7cQnQl3344cl3jjxl5-20" value="&lt;font style=&quot;font-size: 200px;&quot; face=&quot;Roboto Mono&quot;&gt;+Y&lt;/font&gt;" style="text;html=1;strokeColor=none;fillColor=none;align=center;verticalAlign=middle;whiteSpace=wrap;rounded=0;fontSize=200;" parent="1" vertex="1"><mxGeometry x="532" y="260" width="472" height="210" as="geometry"/></mxCell><mxCell id="3i7cQnQl3344cl3jjxl5-21" value="&lt;font style=&quot;font-size: 200px;&quot; face=&quot;Roboto Mono&quot;&gt;+Z&lt;/font&gt;" style="text;html=1;strokeColor=none;fillColor=none;align=center;verticalAlign=middle;whiteSpace=wrap;rounded=0;fontSize=200;" parent="1" vertex="1"><mxGeometry x="1044" y="260" width="472" height="210" as="geometry"/></mxCell></root></mxGraphModel></diagram></mxfile>